<mxfile host="app.diagrams.net" modified="2024-04-29T13:08:48.021Z" agent="Mozilla/5.0 (Windows NT 10.0; Win64; x64) AppleWebKit/537.36 (KHTML, like Gecko) Chrome/124.0.0.0 Safari/537.36" etag="1mm08PrbInVb5IJNmiri" version="24.3.0" type="device">
  <diagram name="Página-1" id="gU1pvASSGSE8f0--qNfa">
    <mxGraphModel dx="2856" dy="1705" grid="1" gridSize="10" guides="1" tooltips="1" connect="1" arrows="1" fold="1" page="1" pageScale="1" pageWidth="1169" pageHeight="827" math="0" shadow="0">
      <root>
        <mxCell id="0" />
        <mxCell id="1" parent="0" />
        <mxCell id="fPtEteICF-gz10orUt-t-1" value="Clinica" style="rounded=0;whiteSpace=wrap;html=1;" parent="1" vertex="1">
          <mxGeometry x="80" y="-280" width="120" height="60" as="geometry" />
        </mxCell>
        <mxCell id="fPtEteICF-gz10orUt-t-2" value="" style="endArrow=none;html=1;rounded=0;entryX=0.5;entryY=1;entryDx=0;entryDy=0;" parent="1" target="fPtEteICF-gz10orUt-t-5" edge="1">
          <mxGeometry width="50" height="50" relative="1" as="geometry">
            <mxPoint x="139.5" y="-280" as="sourcePoint" />
            <mxPoint x="80" y="-340" as="targetPoint" />
          </mxGeometry>
        </mxCell>
        <mxCell id="fPtEteICF-gz10orUt-t-3" value="" style="endArrow=none;html=1;rounded=0;entryX=0.5;entryY=1;entryDx=0;entryDy=0;" parent="1" target="fPtEteICF-gz10orUt-t-7" edge="1">
          <mxGeometry width="50" height="50" relative="1" as="geometry">
            <mxPoint x="140" y="-280" as="sourcePoint" />
            <mxPoint x="200" y="-340" as="targetPoint" />
          </mxGeometry>
        </mxCell>
        <mxCell id="fPtEteICF-gz10orUt-t-4" value="" style="endArrow=none;html=1;rounded=0;exitX=0.5;exitY=0;exitDx=0;exitDy=0;" parent="1" source="fPtEteICF-gz10orUt-t-1" edge="1">
          <mxGeometry width="50" height="50" relative="1" as="geometry">
            <mxPoint x="139.5" y="-300" as="sourcePoint" />
            <mxPoint x="140" y="-340" as="targetPoint" />
          </mxGeometry>
        </mxCell>
        <mxCell id="fPtEteICF-gz10orUt-t-5" value="&lt;u&gt;nome&lt;/u&gt;" style="ellipse;whiteSpace=wrap;html=1;" parent="1" vertex="1">
          <mxGeometry y="-400" width="80" height="60" as="geometry" />
        </mxCell>
        <mxCell id="fPtEteICF-gz10orUt-t-6" value="morada" style="ellipse;whiteSpace=wrap;html=1;" parent="1" vertex="1">
          <mxGeometry x="100" y="-400" width="80" height="60" as="geometry" />
        </mxCell>
        <mxCell id="fPtEteICF-gz10orUt-t-7" value="número de&lt;div&gt;telefone&lt;/div&gt;" style="ellipse;whiteSpace=wrap;html=1;" parent="1" vertex="1">
          <mxGeometry x="200" y="-400" width="80" height="60" as="geometry" />
        </mxCell>
        <mxCell id="fPtEteICF-gz10orUt-t-12" value="Profissionais de&amp;nbsp;&lt;div&gt;Saúde&lt;/div&gt;" style="rounded=0;whiteSpace=wrap;html=1;" parent="1" vertex="1">
          <mxGeometry x="410" y="-55" width="120" height="60" as="geometry" />
        </mxCell>
        <mxCell id="fPtEteICF-gz10orUt-t-14" value="&lt;u&gt;NIF&lt;/u&gt;" style="ellipse;whiteSpace=wrap;html=1;" parent="1" vertex="1">
          <mxGeometry x="280" y="-175" width="80" height="60" as="geometry" />
        </mxCell>
        <mxCell id="fPtEteICF-gz10orUt-t-16" value="nome" style="ellipse;whiteSpace=wrap;html=1;" parent="1" vertex="1">
          <mxGeometry x="366" y="-175" width="80" height="60" as="geometry" />
        </mxCell>
        <mxCell id="fPtEteICF-gz10orUt-t-17" value="morada" style="ellipse;whiteSpace=wrap;html=1;" parent="1" vertex="1">
          <mxGeometry x="456" y="-175" width="80" height="60" as="geometry" />
        </mxCell>
        <mxCell id="fPtEteICF-gz10orUt-t-18" value="telefone" style="ellipse;whiteSpace=wrap;html=1;" parent="1" vertex="1">
          <mxGeometry x="546" y="-175" width="80" height="60" as="geometry" />
        </mxCell>
        <mxCell id="fPtEteICF-gz10orUt-t-19" value="IBAN" style="ellipse;whiteSpace=wrap;html=1;" parent="1" vertex="1">
          <mxGeometry x="635" y="-175" width="80" height="60" as="geometry" />
        </mxCell>
        <mxCell id="fPtEteICF-gz10orUt-t-20" value="" style="endArrow=none;html=1;rounded=0;exitX=0.5;exitY=0;exitDx=0;exitDy=0;entryX=0.5;entryY=1;entryDx=0;entryDy=0;" parent="1" target="fPtEteICF-gz10orUt-t-14" edge="1">
          <mxGeometry width="50" height="50" relative="1" as="geometry">
            <mxPoint x="469.5" y="-55" as="sourcePoint" />
            <mxPoint x="469.5" y="-115" as="targetPoint" />
          </mxGeometry>
        </mxCell>
        <mxCell id="fPtEteICF-gz10orUt-t-21" value="" style="endArrow=none;html=1;rounded=0;exitX=0.5;exitY=0;exitDx=0;exitDy=0;entryX=0.5;entryY=1;entryDx=0;entryDy=0;" parent="1" target="fPtEteICF-gz10orUt-t-16" edge="1">
          <mxGeometry width="50" height="50" relative="1" as="geometry">
            <mxPoint x="469.5" y="-55" as="sourcePoint" />
            <mxPoint x="469.5" y="-115" as="targetPoint" />
          </mxGeometry>
        </mxCell>
        <mxCell id="fPtEteICF-gz10orUt-t-22" value="" style="endArrow=none;html=1;rounded=0;exitX=0.5;exitY=0;exitDx=0;exitDy=0;entryX=0.5;entryY=1;entryDx=0;entryDy=0;" parent="1" target="fPtEteICF-gz10orUt-t-17" edge="1">
          <mxGeometry width="50" height="50" relative="1" as="geometry">
            <mxPoint x="469.5" y="-55" as="sourcePoint" />
            <mxPoint x="469.5" y="-115" as="targetPoint" />
          </mxGeometry>
        </mxCell>
        <mxCell id="fPtEteICF-gz10orUt-t-23" value="" style="endArrow=none;html=1;rounded=0;exitX=0.5;exitY=0;exitDx=0;exitDy=0;entryX=0.5;entryY=1;entryDx=0;entryDy=0;" parent="1" target="fPtEteICF-gz10orUt-t-18" edge="1">
          <mxGeometry width="50" height="50" relative="1" as="geometry">
            <mxPoint x="469.5" y="-55" as="sourcePoint" />
            <mxPoint x="469.5" y="-115" as="targetPoint" />
          </mxGeometry>
        </mxCell>
        <mxCell id="fPtEteICF-gz10orUt-t-24" value="" style="endArrow=none;html=1;rounded=0;exitX=0.5;exitY=0;exitDx=0;exitDy=0;entryX=0.5;entryY=1;entryDx=0;entryDy=0;" parent="1" edge="1">
          <mxGeometry width="50" height="50" relative="1" as="geometry">
            <mxPoint x="469.5" y="-55" as="sourcePoint" />
            <mxPoint x="676" y="-115" as="targetPoint" />
          </mxGeometry>
        </mxCell>
        <mxCell id="fPtEteICF-gz10orUt-t-25" value="" style="shape=link;html=1;rounded=0;entryX=1;entryY=0.5;entryDx=0;entryDy=0;exitX=0.467;exitY=1.009;exitDx=0;exitDy=0;exitPerimeter=0;" parent="1" source="fPtEteICF-gz10orUt-t-12" target="fPtEteICF-gz10orUt-t-26" edge="1">
          <mxGeometry width="100" relative="1" as="geometry">
            <mxPoint x="479.5" y="-80" as="sourcePoint" />
            <mxPoint x="390" y="-20" as="targetPoint" />
          </mxGeometry>
        </mxCell>
        <mxCell id="fPtEteICF-gz10orUt-t-26" value="" style="triangle;whiteSpace=wrap;html=1;rotation=-90;" parent="1" vertex="1">
          <mxGeometry x="446" y="65" width="40" height="50" as="geometry" />
        </mxCell>
        <mxCell id="fPtEteICF-gz10orUt-t-27" value="x" style="text;strokeColor=none;align=center;fillColor=none;html=1;verticalAlign=middle;whiteSpace=wrap;rounded=0;" parent="1" vertex="1">
          <mxGeometry x="451" y="75" width="30" height="40" as="geometry" />
        </mxCell>
        <mxCell id="fPtEteICF-gz10orUt-t-28" value="" style="endArrow=none;html=1;rounded=0;entryX=0;entryY=0.5;entryDx=0;entryDy=0;" parent="1" target="fPtEteICF-gz10orUt-t-26" edge="1">
          <mxGeometry width="50" height="50" relative="1" as="geometry">
            <mxPoint x="406" y="205" as="sourcePoint" />
            <mxPoint x="456" y="145" as="targetPoint" />
            <Array as="points">
              <mxPoint x="406" y="165" />
              <mxPoint x="466" y="165" />
            </Array>
          </mxGeometry>
        </mxCell>
        <mxCell id="fPtEteICF-gz10orUt-t-33" value="" style="endArrow=none;html=1;rounded=0;entryX=0;entryY=0.5;entryDx=0;entryDy=0;" parent="1" target="fPtEteICF-gz10orUt-t-26" edge="1">
          <mxGeometry width="50" height="50" relative="1" as="geometry">
            <mxPoint x="526" y="205" as="sourcePoint" />
            <mxPoint x="541" y="115" as="targetPoint" />
            <Array as="points">
              <mxPoint x="526" y="165" />
              <mxPoint x="466" y="165" />
            </Array>
          </mxGeometry>
        </mxCell>
        <mxCell id="fPtEteICF-gz10orUt-t-34" value="Médicos" style="rounded=0;whiteSpace=wrap;html=1;" parent="1" vertex="1">
          <mxGeometry x="360" y="185" width="95" height="50" as="geometry" />
        </mxCell>
        <mxCell id="fPtEteICF-gz10orUt-t-36" value="Enfermeiros" style="rounded=0;whiteSpace=wrap;html=1;" parent="1" vertex="1">
          <mxGeometry x="481" y="185" width="95" height="50" as="geometry" />
        </mxCell>
        <mxCell id="0JzFk34Urz8kPae0WSKu-1" value="" style="endArrow=none;html=1;rounded=0;exitX=0.5;exitY=1;exitDx=0;exitDy=0;entryX=0.25;entryY=0;entryDx=0;entryDy=0;" parent="1" source="0JzFk34Urz8kPae0WSKu-2" edge="1" target="fPtEteICF-gz10orUt-t-34">
          <mxGeometry width="50" height="50" relative="1" as="geometry">
            <mxPoint x="406" y="265" as="sourcePoint" />
            <mxPoint x="406" y="235" as="targetPoint" />
          </mxGeometry>
        </mxCell>
        <mxCell id="0JzFk34Urz8kPae0WSKu-2" value="&lt;div&gt;Especialidade&lt;/div&gt;" style="ellipse;whiteSpace=wrap;html=1;" parent="1" vertex="1">
          <mxGeometry x="310" y="80" width="80" height="60" as="geometry" />
        </mxCell>
        <mxCell id="0JzFk34Urz8kPae0WSKu-4" value="" style="rhombus;whiteSpace=wrap;html=1;" parent="1" vertex="1">
          <mxGeometry x="60" y="360" width="60" height="60" as="geometry" />
        </mxCell>
        <mxCell id="0JzFk34Urz8kPae0WSKu-7" value="trabalha &amp;lt;" style="text;strokeColor=none;align=center;fillColor=none;html=1;verticalAlign=middle;whiteSpace=wrap;rounded=0;" parent="1" vertex="1">
          <mxGeometry x="90" y="240" width="90" height="30" as="geometry" />
        </mxCell>
        <mxCell id="0JzFk34Urz8kPae0WSKu-8" value="" style="shape=flexArrow;endArrow=classic;html=1;rounded=0;entryX=1;entryY=0.5;entryDx=0;entryDy=0;exitX=0.5;exitY=1;exitDx=0;exitDy=0;width=5.714285714285714;endSize=2.9798657718120802;endWidth=7.420901246404601;" parent="1" source="fPtEteICF-gz10orUt-t-36" target="0JzFk34Urz8kPae0WSKu-4" edge="1">
          <mxGeometry width="50" height="50" relative="1" as="geometry">
            <mxPoint x="560" y="390" as="sourcePoint" />
            <mxPoint x="230" y="350" as="targetPoint" />
            <Array as="points">
              <mxPoint x="530" y="390" />
            </Array>
          </mxGeometry>
        </mxCell>
        <mxCell id="0JzFk34Urz8kPae0WSKu-9" value="" style="shape=link;html=1;rounded=0;exitX=0.079;exitY=1.014;exitDx=0;exitDy=0;exitPerimeter=0;" parent="1" source="fPtEteICF-gz10orUt-t-1" target="0JzFk34Urz8kPae0WSKu-4" edge="1">
          <mxGeometry width="100" relative="1" as="geometry">
            <mxPoint x="89.66000000000003" y="-80" as="sourcePoint" />
            <mxPoint x="89.66000000000003" y="-45" as="targetPoint" />
          </mxGeometry>
        </mxCell>
        <mxCell id="0JzFk34Urz8kPae0WSKu-10" value="" style="rhombus;whiteSpace=wrap;html=1;" parent="1" vertex="1">
          <mxGeometry x="100" y="185" width="60" height="60" as="geometry" />
        </mxCell>
        <mxCell id="0JzFk34Urz8kPae0WSKu-11" value="" style="shape=link;html=1;rounded=0;exitX=-0.014;exitY=0.602;exitDx=0;exitDy=0;entryX=1;entryY=0.5;entryDx=0;entryDy=0;exitPerimeter=0;" parent="1" source="fPtEteICF-gz10orUt-t-34" target="0JzFk34Urz8kPae0WSKu-10" edge="1">
          <mxGeometry width="100" relative="1" as="geometry">
            <mxPoint x="250" y="70" as="sourcePoint" />
            <mxPoint x="250.34000000000003" y="390" as="targetPoint" />
          </mxGeometry>
        </mxCell>
        <mxCell id="0JzFk34Urz8kPae0WSKu-12" value="" style="shape=link;html=1;rounded=0;entryX=0.5;entryY=0;entryDx=0;entryDy=0;exitX=0.421;exitY=1.014;exitDx=0;exitDy=0;exitPerimeter=0;" parent="1" source="fPtEteICF-gz10orUt-t-1" target="0JzFk34Urz8kPae0WSKu-10" edge="1">
          <mxGeometry width="100" relative="1" as="geometry">
            <mxPoint x="130" y="-80" as="sourcePoint" />
            <mxPoint x="120.34000000000003" y="255" as="targetPoint" />
          </mxGeometry>
        </mxCell>
        <mxCell id="0JzFk34Urz8kPae0WSKu-13" value="Dia" style="ellipse;whiteSpace=wrap;html=1;" parent="1" vertex="1">
          <mxGeometry x="150" y="155" width="40" height="30" as="geometry" />
        </mxCell>
        <mxCell id="0JzFk34Urz8kPae0WSKu-14" value="" style="endArrow=none;html=1;rounded=0;exitX=1;exitY=0;exitDx=0;exitDy=0;entryX=0.5;entryY=1;entryDx=0;entryDy=0;" parent="1" source="0JzFk34Urz8kPae0WSKu-10" target="0JzFk34Urz8kPae0WSKu-13" edge="1">
          <mxGeometry width="50" height="50" relative="1" as="geometry">
            <mxPoint x="179" y="185" as="sourcePoint" />
            <mxPoint x="179" y="125" as="targetPoint" />
          </mxGeometry>
        </mxCell>
        <mxCell id="0JzFk34Urz8kPae0WSKu-15" value="Pacientes" style="rounded=0;whiteSpace=wrap;html=1;" parent="1" vertex="1">
          <mxGeometry x="-352" y="350" width="120" height="60" as="geometry" />
        </mxCell>
        <mxCell id="0JzFk34Urz8kPae0WSKu-16" value="&lt;u&gt;Nº SNS&lt;/u&gt;" style="ellipse;whiteSpace=wrap;html=1;" parent="1" vertex="1">
          <mxGeometry x="-407" y="480" width="80" height="60" as="geometry" />
        </mxCell>
        <mxCell id="0JzFk34Urz8kPae0WSKu-17" value="" style="endArrow=none;html=1;rounded=0;exitX=0.5;exitY=0;exitDx=0;exitDy=0;entryX=0.5;entryY=1;entryDx=0;entryDy=0;" parent="1" source="0JzFk34Urz8kPae0WSKu-16" target="0JzFk34Urz8kPae0WSKu-15" edge="1">
          <mxGeometry width="50" height="50" relative="1" as="geometry">
            <mxPoint x="-157.5" y="490" as="sourcePoint" />
            <mxPoint x="-307" y="430" as="targetPoint" />
          </mxGeometry>
        </mxCell>
        <mxCell id="0JzFk34Urz8kPae0WSKu-18" value="nome" style="ellipse;whiteSpace=wrap;html=1;" parent="1" vertex="1">
          <mxGeometry x="-317" y="480" width="80" height="60" as="geometry" />
        </mxCell>
        <mxCell id="0JzFk34Urz8kPae0WSKu-19" value="NIF" style="ellipse;whiteSpace=wrap;html=1;" parent="1" vertex="1">
          <mxGeometry x="-227" y="480" width="80" height="60" as="geometry" />
        </mxCell>
        <mxCell id="0JzFk34Urz8kPae0WSKu-20" value="data de&amp;nbsp;&lt;div&gt;nasicmento&lt;/div&gt;" style="ellipse;whiteSpace=wrap;html=1;" parent="1" vertex="1">
          <mxGeometry x="-137" y="480" width="80" height="60" as="geometry" />
        </mxCell>
        <mxCell id="0JzFk34Urz8kPae0WSKu-21" value="morada" style="ellipse;whiteSpace=wrap;html=1;" parent="1" vertex="1">
          <mxGeometry x="-47.5" y="480" width="80" height="60" as="geometry" />
        </mxCell>
        <mxCell id="0JzFk34Urz8kPae0WSKu-22" value="telefone" style="ellipse;whiteSpace=wrap;html=1;" parent="1" vertex="1">
          <mxGeometry x="40" y="480" width="80" height="60" as="geometry" />
        </mxCell>
        <mxCell id="0JzFk34Urz8kPae0WSKu-23" value="" style="endArrow=none;html=1;rounded=0;exitX=0.5;exitY=0;exitDx=0;exitDy=0;entryX=0.5;entryY=1;entryDx=0;entryDy=0;" parent="1" source="0JzFk34Urz8kPae0WSKu-18" target="0JzFk34Urz8kPae0WSKu-15" edge="1">
          <mxGeometry width="50" height="50" relative="1" as="geometry">
            <mxPoint x="-357" y="490" as="sourcePoint" />
            <mxPoint x="-282" y="420" as="targetPoint" />
          </mxGeometry>
        </mxCell>
        <mxCell id="0JzFk34Urz8kPae0WSKu-24" value="" style="endArrow=none;html=1;rounded=0;exitX=0.5;exitY=0;exitDx=0;exitDy=0;entryX=0.5;entryY=1;entryDx=0;entryDy=0;" parent="1" source="0JzFk34Urz8kPae0WSKu-19" target="0JzFk34Urz8kPae0WSKu-15" edge="1">
          <mxGeometry width="50" height="50" relative="1" as="geometry">
            <mxPoint x="-347" y="500" as="sourcePoint" />
            <mxPoint x="-272" y="430" as="targetPoint" />
          </mxGeometry>
        </mxCell>
        <mxCell id="0JzFk34Urz8kPae0WSKu-25" value="" style="endArrow=none;html=1;rounded=0;exitX=0.5;exitY=0;exitDx=0;exitDy=0;entryX=0.5;entryY=1;entryDx=0;entryDy=0;" parent="1" source="0JzFk34Urz8kPae0WSKu-20" target="0JzFk34Urz8kPae0WSKu-15" edge="1">
          <mxGeometry width="50" height="50" relative="1" as="geometry">
            <mxPoint x="-337" y="510" as="sourcePoint" />
            <mxPoint x="-262" y="440" as="targetPoint" />
          </mxGeometry>
        </mxCell>
        <mxCell id="0JzFk34Urz8kPae0WSKu-26" value="" style="endArrow=none;html=1;rounded=0;exitX=0.5;exitY=0;exitDx=0;exitDy=0;entryX=0.5;entryY=1;entryDx=0;entryDy=0;" parent="1" source="0JzFk34Urz8kPae0WSKu-21" target="0JzFk34Urz8kPae0WSKu-15" edge="1">
          <mxGeometry width="50" height="50" relative="1" as="geometry">
            <mxPoint x="-327" y="520" as="sourcePoint" />
            <mxPoint x="-252" y="450" as="targetPoint" />
          </mxGeometry>
        </mxCell>
        <mxCell id="0JzFk34Urz8kPae0WSKu-27" value="" style="endArrow=none;html=1;rounded=0;exitX=0.5;exitY=0;exitDx=0;exitDy=0;entryX=0.5;entryY=1;entryDx=0;entryDy=0;" parent="1" source="0JzFk34Urz8kPae0WSKu-22" target="0JzFk34Urz8kPae0WSKu-15" edge="1">
          <mxGeometry width="50" height="50" relative="1" as="geometry">
            <mxPoint x="-317" y="530" as="sourcePoint" />
            <mxPoint x="-242" y="460" as="targetPoint" />
          </mxGeometry>
        </mxCell>
        <mxCell id="0JzFk34Urz8kPae0WSKu-45" value="" style="shape=link;html=1;rounded=0;entryX=0;entryY=0.5;entryDx=0;entryDy=0;exitX=1;exitY=0.5;exitDx=0;exitDy=0;" parent="1" source="0JzFk34Urz8kPae0WSKu-46" target="0JzFk34Urz8kPae0WSKu-15" edge="1">
          <mxGeometry width="100" relative="1" as="geometry">
            <mxPoint x="-440" y="390" as="sourcePoint" />
            <mxPoint x="-370" y="379.4100000000001" as="targetPoint" />
          </mxGeometry>
        </mxCell>
        <mxCell id="0JzFk34Urz8kPae0WSKu-46" value="" style="rhombus;whiteSpace=wrap;html=1;" parent="1" vertex="1">
          <mxGeometry x="-540" y="350" width="60" height="60" as="geometry" />
        </mxCell>
        <mxCell id="0JzFk34Urz8kPae0WSKu-47" value="&amp;lt; têm" style="text;strokeColor=none;align=center;fillColor=none;html=1;verticalAlign=middle;whiteSpace=wrap;rounded=0;" parent="1" vertex="1">
          <mxGeometry x="-555" y="325" width="90" height="30" as="geometry" />
        </mxCell>
        <mxCell id="0JzFk34Urz8kPae0WSKu-48" value="" style="rhombus;whiteSpace=wrap;html=1;" parent="1" vertex="1">
          <mxGeometry x="-535" y="355" width="50" height="50" as="geometry" />
        </mxCell>
        <mxCell id="0JzFk34Urz8kPae0WSKu-49" value="" style="rounded=0;whiteSpace=wrap;html=1;" parent="1" vertex="1">
          <mxGeometry x="-770" y="350" width="120" height="60" as="geometry" />
        </mxCell>
        <mxCell id="0JzFk34Urz8kPae0WSKu-50" value="Sistema de Saúde" style="rounded=0;whiteSpace=wrap;html=1;" parent="1" vertex="1">
          <mxGeometry x="-765" y="355" width="110" height="50" as="geometry" />
        </mxCell>
        <mxCell id="0JzFk34Urz8kPae0WSKu-52" value="" style="shape=flexArrow;endArrow=classic;html=1;rounded=0;entryX=0;entryY=0.5;entryDx=0;entryDy=0;exitX=1;exitY=0.5;exitDx=0;exitDy=0;width=5.714285714285714;endSize=2.9798657718120802;endWidth=7.420901246404601;" parent="1" source="0JzFk34Urz8kPae0WSKu-49" target="0JzFk34Urz8kPae0WSKu-46" edge="1">
          <mxGeometry width="50" height="50" relative="1" as="geometry">
            <mxPoint x="-40" y="125" as="sourcePoint" />
            <mxPoint x="-461" y="275" as="targetPoint" />
            <Array as="points" />
          </mxGeometry>
        </mxCell>
        <mxCell id="0JzFk34Urz8kPae0WSKu-53" value="nome do sistema" style="ellipse;whiteSpace=wrap;html=1;" parent="1" vertex="1">
          <mxGeometry x="-750" y="450" width="80" height="60" as="geometry" />
        </mxCell>
        <mxCell id="0JzFk34Urz8kPae0WSKu-54" value="" style="endArrow=none;html=1;rounded=0;exitX=0.5;exitY=0;exitDx=0;exitDy=0;entryX=0.5;entryY=1;entryDx=0;entryDy=0;" parent="1" source="0JzFk34Urz8kPae0WSKu-53" target="0JzFk34Urz8kPae0WSKu-49" edge="1">
          <mxGeometry width="50" height="50" relative="1" as="geometry">
            <mxPoint x="-615" y="490" as="sourcePoint" />
            <mxPoint x="-630" y="420" as="targetPoint" />
          </mxGeometry>
        </mxCell>
        <mxCell id="0JzFk34Urz8kPae0WSKu-55" value="" style="endArrow=none;dashed=1;html=1;rounded=0;" parent="1" edge="1">
          <mxGeometry width="50" height="50" relative="1" as="geometry">
            <mxPoint x="-732.5" y="479" as="sourcePoint" />
            <mxPoint x="-687.5" y="479" as="targetPoint" />
          </mxGeometry>
        </mxCell>
        <mxCell id="0JzFk34Urz8kPae0WSKu-58" value="" style="endArrow=none;dashed=1;html=1;rounded=0;" parent="1" edge="1">
          <mxGeometry width="50" height="50" relative="1" as="geometry">
            <mxPoint x="-729.5" y="494" as="sourcePoint" />
            <mxPoint x="-688" y="494" as="targetPoint" />
          </mxGeometry>
        </mxCell>
        <mxCell id="0JzFk34Urz8kPae0WSKu-64" value="" style="rounded=0;whiteSpace=wrap;html=1;" parent="1" vertex="1">
          <mxGeometry x="808" y="-280" width="120" height="60" as="geometry" />
        </mxCell>
        <mxCell id="0JzFk34Urz8kPae0WSKu-65" value="" style="shape=link;html=1;rounded=0;exitX=0.5;exitY=1;exitDx=0;exitDy=0;entryX=1;entryY=0.5;entryDx=0;entryDy=0;" parent="1" source="0JzFk34Urz8kPae0WSKu-64" target="0JzFk34Urz8kPae0WSKu-70" edge="1">
          <mxGeometry width="100" relative="1" as="geometry">
            <mxPoint x="860" y="-205" as="sourcePoint" />
            <mxPoint x="868" y="-165" as="targetPoint" />
          </mxGeometry>
        </mxCell>
        <mxCell id="0JzFk34Urz8kPae0WSKu-70" value="" style="triangle;whiteSpace=wrap;html=1;rotation=-90;" parent="1" vertex="1">
          <mxGeometry x="848" y="-55" width="40" height="50" as="geometry" />
        </mxCell>
        <mxCell id="0JzFk34Urz8kPae0WSKu-71" value="x" style="text;strokeColor=none;align=center;fillColor=none;html=1;verticalAlign=middle;whiteSpace=wrap;rounded=0;" parent="1" vertex="1">
          <mxGeometry x="853" y="-42.5" width="30" height="25" as="geometry" />
        </mxCell>
        <mxCell id="0JzFk34Urz8kPae0WSKu-72" value="" style="endArrow=none;html=1;rounded=0;entryX=0;entryY=0.5;entryDx=0;entryDy=0;" parent="1" target="0JzFk34Urz8kPae0WSKu-70" edge="1">
          <mxGeometry width="50" height="50" relative="1" as="geometry">
            <mxPoint x="806" y="205" as="sourcePoint" />
            <mxPoint x="869.95" y="101.08000000000015" as="targetPoint" />
            <Array as="points">
              <mxPoint x="806" y="165" />
              <mxPoint x="868" y="165" />
            </Array>
          </mxGeometry>
        </mxCell>
        <mxCell id="0JzFk34Urz8kPae0WSKu-73" value="" style="endArrow=none;html=1;rounded=0;entryX=0;entryY=0.5;entryDx=0;entryDy=0;" parent="1" target="0JzFk34Urz8kPae0WSKu-70" edge="1">
          <mxGeometry width="50" height="50" relative="1" as="geometry">
            <mxPoint x="926" y="205" as="sourcePoint" />
            <mxPoint x="870" y="100" as="targetPoint" />
            <Array as="points">
              <mxPoint x="926" y="165" />
              <mxPoint x="868" y="165" />
            </Array>
          </mxGeometry>
        </mxCell>
        <mxCell id="0JzFk34Urz8kPae0WSKu-74" value="Serviços de Enfermagem" style="rounded=0;whiteSpace=wrap;html=1;" parent="1" vertex="1">
          <mxGeometry x="760" y="185" width="95" height="50" as="geometry" />
        </mxCell>
        <mxCell id="0JzFk34Urz8kPae0WSKu-75" value="Consultas" style="rounded=0;whiteSpace=wrap;html=1;" parent="1" vertex="1">
          <mxGeometry x="881" y="185" width="95" height="50" as="geometry" />
        </mxCell>
        <mxCell id="1KvgpQDCSL0FGOuZY3on-1" value="" style="endArrow=none;dashed=1;html=1;rounded=0;" edge="1" parent="1">
          <mxGeometry width="50" height="50" relative="1" as="geometry">
            <mxPoint x="-722.5" y="489" as="sourcePoint" />
            <mxPoint x="-677.5" y="489" as="targetPoint" />
          </mxGeometry>
        </mxCell>
        <mxCell id="1KvgpQDCSL0FGOuZY3on-3" value="" style="rhombus;whiteSpace=wrap;html=1;" vertex="1" parent="1">
          <mxGeometry x="635" y="180" width="60" height="60" as="geometry" />
        </mxCell>
        <mxCell id="1KvgpQDCSL0FGOuZY3on-4" value="realizam &amp;gt;" style="text;strokeColor=none;align=center;fillColor=none;html=1;verticalAlign=middle;whiteSpace=wrap;rounded=0;" vertex="1" parent="1">
          <mxGeometry x="620" y="150" width="90" height="30" as="geometry" />
        </mxCell>
        <mxCell id="1KvgpQDCSL0FGOuZY3on-5" value="" style="rhombus;whiteSpace=wrap;html=1;" vertex="1" parent="1">
          <mxGeometry x="635" y="280" width="60" height="60" as="geometry" />
        </mxCell>
        <mxCell id="1KvgpQDCSL0FGOuZY3on-6" value="realizam &amp;gt;" style="text;strokeColor=none;align=center;fillColor=none;html=1;verticalAlign=middle;whiteSpace=wrap;rounded=0;" vertex="1" parent="1">
          <mxGeometry x="620" y="250" width="90" height="30" as="geometry" />
        </mxCell>
        <mxCell id="1KvgpQDCSL0FGOuZY3on-7" value="" style="endArrow=none;html=1;rounded=0;entryX=0;entryY=0.5;entryDx=0;entryDy=0;exitX=1;exitY=0.5;exitDx=0;exitDy=0;" edge="1" parent="1" source="fPtEteICF-gz10orUt-t-36" target="1KvgpQDCSL0FGOuZY3on-3">
          <mxGeometry width="50" height="50" relative="1" as="geometry">
            <mxPoint x="625" y="215" as="sourcePoint" />
            <mxPoint x="725" y="155" as="targetPoint" />
          </mxGeometry>
        </mxCell>
        <mxCell id="1KvgpQDCSL0FGOuZY3on-8" value="" style="endArrow=none;html=1;rounded=0;entryX=0;entryY=0.5;entryDx=0;entryDy=0;exitX=0.984;exitY=0.499;exitDx=0;exitDy=0;exitPerimeter=0;" edge="1" parent="1" source="1KvgpQDCSL0FGOuZY3on-3" target="0JzFk34Urz8kPae0WSKu-74">
          <mxGeometry width="50" height="50" relative="1" as="geometry">
            <mxPoint x="700" y="210" as="sourcePoint" />
            <mxPoint x="755" y="209.47" as="targetPoint" />
          </mxGeometry>
        </mxCell>
        <mxCell id="1KvgpQDCSL0FGOuZY3on-9" value="" style="endArrow=none;html=1;rounded=0;entryX=0;entryY=0.5;entryDx=0;entryDy=0;exitX=0.5;exitY=1;exitDx=0;exitDy=0;" edge="1" parent="1" source="fPtEteICF-gz10orUt-t-34" target="1KvgpQDCSL0FGOuZY3on-5">
          <mxGeometry width="50" height="50" relative="1" as="geometry">
            <mxPoint x="376.5" y="338.75" as="sourcePoint" />
            <mxPoint x="435.5" y="338.75" as="targetPoint" />
            <Array as="points">
              <mxPoint x="408" y="310" />
            </Array>
          </mxGeometry>
        </mxCell>
        <mxCell id="1KvgpQDCSL0FGOuZY3on-10" value="" style="endArrow=none;html=1;rounded=0;entryX=0.5;entryY=1;entryDx=0;entryDy=0;exitX=1;exitY=0.5;exitDx=0;exitDy=0;" edge="1" parent="1" source="1KvgpQDCSL0FGOuZY3on-5" target="0JzFk34Urz8kPae0WSKu-75">
          <mxGeometry width="50" height="50" relative="1" as="geometry">
            <mxPoint x="740" y="309.38" as="sourcePoint" />
            <mxPoint x="799" y="309.38" as="targetPoint" />
            <Array as="points">
              <mxPoint x="929" y="310" />
            </Array>
          </mxGeometry>
        </mxCell>
        <mxCell id="1KvgpQDCSL0FGOuZY3on-12" value="" style="rhombus;whiteSpace=wrap;html=1;" vertex="1" parent="1">
          <mxGeometry x="476" y="-280" width="60" height="60" as="geometry" />
        </mxCell>
        <mxCell id="1KvgpQDCSL0FGOuZY3on-13" value="" style="rhombus;whiteSpace=wrap;html=1;" vertex="1" parent="1">
          <mxGeometry x="481" y="-275" width="50" height="50" as="geometry" />
        </mxCell>
        <mxCell id="1KvgpQDCSL0FGOuZY3on-14" value="Serviços de Saúde" style="rounded=0;whiteSpace=wrap;html=1;" vertex="1" parent="1">
          <mxGeometry x="813" y="-275" width="110" height="50" as="geometry" />
        </mxCell>
        <mxCell id="1KvgpQDCSL0FGOuZY3on-15" value="" style="shape=flexArrow;endArrow=classic;html=1;rounded=0;entryX=1;entryY=0.5;entryDx=0;entryDy=0;exitX=0;exitY=0.5;exitDx=0;exitDy=0;width=5.714285714285714;endSize=2.9798657718120802;endWidth=7.420901246404601;" edge="1" parent="1" source="0JzFk34Urz8kPae0WSKu-64" target="1KvgpQDCSL0FGOuZY3on-12">
          <mxGeometry width="50" height="50" relative="1" as="geometry">
            <mxPoint x="605" y="-260" as="sourcePoint" />
            <mxPoint x="715" y="-260" as="targetPoint" />
            <Array as="points" />
          </mxGeometry>
        </mxCell>
        <mxCell id="1KvgpQDCSL0FGOuZY3on-16" value="" style="shape=link;html=1;rounded=0;entryX=0;entryY=0.5;entryDx=0;entryDy=0;exitX=1;exitY=0.5;exitDx=0;exitDy=0;" edge="1" parent="1" source="fPtEteICF-gz10orUt-t-1" target="1KvgpQDCSL0FGOuZY3on-12">
          <mxGeometry width="100" relative="1" as="geometry">
            <mxPoint x="238" y="-250.59000000000003" as="sourcePoint" />
            <mxPoint x="366" y="-250.59000000000003" as="targetPoint" />
          </mxGeometry>
        </mxCell>
        <mxCell id="1KvgpQDCSL0FGOuZY3on-17" value="presta &amp;gt;" style="text;strokeColor=none;align=center;fillColor=none;html=1;verticalAlign=middle;whiteSpace=wrap;rounded=0;" vertex="1" parent="1">
          <mxGeometry x="461" y="-305" width="90" height="30" as="geometry" />
        </mxCell>
      </root>
    </mxGraphModel>
  </diagram>
</mxfile>
